<?xml version="1.0" encoding="UTF-8" standalone="no"?>
<svg width="34px" height="24px" viewBox="0 0 34 24" version="1.1" xmlns="http://www.w3.org/2000/svg" xmlns:xlink="http://www.w3.org/1999/xlink">
    <!-- Generator: sketchtool 39.1 (31720) - http://www.bohemiancoding.com/sketch -->
    <title>66646979-174E-4E89-A6F9-515357D47872</title>
    <desc>Created with sketchtool.</desc>
    <defs></defs>
    <g id="UI" stroke="none" stroke-width="1" fill="none" fill-rule="evenodd">
        <g id="Transparency" transform="translate(-15.000000, -261.000000)" fill="#0476C7">
            <g id="Sidebar" transform="translate(0.000000, 176.000000)">
                <path d="M36.8175875,85 C35.1072458,85 33.4784333,85.3496744 32,85.9792558 C30.5215667,85.3497442 28.8927542,85 27.1824125,85 C20.4649333,85 15,90.3827674 15,96.999093 C15,103.615419 20.4649333,108.998186 27.1823417,108.998186 C28.8926833,108.998186 30.5215667,108.648512 31.9999292,108.01893 C33.4783625,108.648442 35.107175,108.998186 36.8175167,108.998186 C43.5349958,108.998186 49,103.615419 49,96.999093 C49,90.3827674 43.5349958,85 36.8175875,85 L36.8175875,85 Z M34.2604333,89.0167209 L26.540875,93.8397442 C27.4175792,91.0784884 29.412175,88.7996744 32,87.5184651 C32.8183375,87.9236047 33.5773875,88.4283023 34.2604333,89.0167209 L34.2604333,89.0167209 Z M26.9973958,101.341209 C26.7559958,100.813558 26.55745,100.263023 26.4055833,99.694 L37.1664417,93.0359535 C37.3674667,93.5255814 37.5325083,94.0330698 37.6580958,94.5554884 L26.9973958,101.341209 L26.9973958,101.341209 Z M37.9043833,96.0600233 C37.9320792,96.3695814 37.9470958,96.6826279 37.9470958,96.999093 C37.9470958,97.4587907 37.9171333,97.9117209 37.8592625,98.3561395 L28.8792958,104.153256 C28.4273792,103.667116 28.0210792,103.139326 27.6664167,102.576721 L37.9043833,96.0600233 L37.9043833,96.0600233 Z M26.1246583,98.2199535 C26.0778375,97.8192093 26.0529042,97.4119767 26.0529042,96.999093 C26.0529042,96.5765116 26.0789,96.1598605 26.1279875,95.7500465 L35.2868083,90.0278605 C35.7631625,90.5645116 36.1855417,91.1487442 36.5455875,91.7722558 L26.1246583,98.2199535 L26.1246583,98.2199535 Z M27.1823417,107.602837 C21.2461542,107.602837 16.4166667,102.846023 16.4166667,96.999093 C16.4166667,91.1521628 21.2461542,86.3953488 27.1823417,86.3953488 C28.2728917,86.3953488 29.3258292,86.5564419 30.3186292,86.854907 C26.9065167,88.9835116 24.6362375,92.734907 24.6362375,96.9991628 C24.6362375,98.9854419 25.1292375,100.860302 26.000275,102.511977 C26.0177708,102.592558 26.0493625,102.671535 26.0974583,102.74486 C26.1242333,102.785674 26.1554708,102.821744 26.1888333,102.855093 C27.1832625,104.599558 28.6070833,106.075698 30.3187,107.143488 C29.3259,107.441744 28.2728917,107.602837 27.1823417,107.602837 L27.1823417,107.602837 Z M29.9311,105.142558 L37.4069208,100.316465 C36.5052125,103.006488 34.5381708,105.22314 31.9999292,106.479721 C31.2573125,106.112047 30.5635708,105.662395 29.9311,105.142558 L29.9311,105.142558 Z M36.8175875,107.602837 C35.7270375,107.602837 34.6741,107.441744 33.6813708,107.143349 C37.0934833,105.014744 39.3638333,101.263349 39.3638333,96.999093 C39.3638333,96.2370233 39.2905208,95.4916977 39.1519708,94.7686977 C39.1504833,94.7596279 39.1485,94.7506279 39.1466583,94.7415581 C38.5040583,91.4305349 36.4761,88.5983256 33.6813708,86.8548372 C34.6741,86.5564419 35.7270375,86.3953488 36.8175875,86.3953488 C42.753775,86.3953488 47.5833333,91.1521628 47.5833333,96.999093 C47.5833333,102.846023 42.753775,107.602837 36.8175875,107.602837 L36.8175875,107.602837 Z" id="merge-icon"></path>
            </g>
        </g>
    </g>
</svg>