<?xml version="1.0" encoding="UTF-8" standalone="no"?>
<svg width="16px" height="16px" viewBox="0 0 16 16" version="1.1" xmlns="http://www.w3.org/2000/svg" xmlns:xlink="http://www.w3.org/1999/xlink">
    <!-- Generator: sketchtool 39.1 (31720) - http://www.bohemiancoding.com/sketch -->
    <title>433BAFAB-CFE1-4BA6-8094-F9E70ED35A7F</title>
    <desc>Created with sketchtool.</desc>
    <defs></defs>
    <g id="UI" stroke="none" stroke-width="1" fill="none" fill-rule="evenodd">
        <g id="Transparency" transform="translate(-346.000000, -211.000000)">
            <g id="Card" transform="translate(80.000000, 192.000000)">
                <g id="time-icon" transform="translate(265.000000, 18.000000)">
                    <polygon id="bounds" points="0 0 18 0 18 18 0 18"></polygon>
                    <path d="M8.9925,1.5 C4.8525,1.5 1.5,4.86 1.5,9 C1.5,13.14 4.8525,16.5 8.9925,16.5 C13.14,16.5 16.5,13.14 16.5,9 C16.5,4.86 13.14,1.5 8.9925,1.5 L8.9925,1.5 Z M9,15 C5.685,15 3,12.315 3,9 C3,5.685 5.685,3 9,3 C12.315,3 15,5.685 15,9 C15,12.315 12.315,15 9,15 L9,15 Z" id="Shape" fill="#444444"></path>
                    <polygon id="Shape" fill="#444444" points="9.375 5.25 8.25 5.25 8.25 9.75 12.1875 12.1125 12.75 11.19 9.375 9.1875"></polygon>
                </g>
            </g>
        </g>
    </g>
</svg>